<svg width="40" height="40" viewBox="0 0 40 40" fill="none" xmlns="http://www.w3.org/2000/svg">
<path fill-rule="evenodd" clip-rule="evenodd" d="M19.9999 5.24331C24.8061 5.24331 25.3753 5.26167 27.2736 5.34827C29.0285 5.42837 29.9815 5.72153 30.6159 5.96804C31.3977 6.25659 32.1049 6.7167 32.6855 7.31453C33.2833 7.89515 33.7434 8.60236 34.032 9.38419C34.2785 10.0185 34.5717 10.9715 34.6518 12.7265C34.7384 14.6246 34.7567 15.1939 34.7567 20.0002C34.7567 24.8066 34.7384 25.3757 34.6518 27.274C34.5717 29.029 34.2784 29.982 34.032 30.6163C33.7325 31.3926 33.2739 32.0976 32.6855 32.686C32.0972 33.2743 31.3922 33.733 30.6159 34.0325C29.9816 34.279 29.0285 34.5722 27.2736 34.6522C25.3758 34.7388 24.8066 34.7572 19.9999 34.7572C15.1932 34.7572 14.6242 34.7388 12.7262 34.6522C10.9713 34.5721 10.0183 34.2789 9.38391 34.0325C8.60209 33.7439 7.89488 33.2838 7.31428 32.686C6.71645 32.1054 6.25635 31.3981 5.96779 30.6163C5.72129 29.982 5.42805 29.029 5.34803 27.274C5.26143 25.3759 5.24307 24.8066 5.24307 20.0002C5.24307 15.1939 5.26143 14.6248 5.34803 12.7265C5.42813 10.9715 5.72129 10.0185 5.96779 9.38419C6.25638 8.60232 6.71653 7.89508 7.31442 7.31446C7.89503 6.71663 8.60224 6.25653 9.38406 5.96797C10.0183 5.72146 10.9714 5.42822 12.7264 5.3482C14.6245 5.2616 15.1937 5.24324 20 5.24324L19.9999 5.24331ZM19.9999 2C15.1115 2 14.4983 2.02072 12.5788 2.10832C10.6628 2.19578 9.3544 2.50001 8.20948 2.94501C7.00844 3.39699 5.92044 4.10551 5.02136 5.02117C4.1055 5.9202 3.39678 7.00821 2.94465 8.20932C2.50001 9.35432 2.19577 10.6627 2.10868 12.5787C2.02072 14.4983 2 15.1115 2 20C2 24.8886 2.02072 25.5018 2.10868 27.4214C2.19613 29.3373 2.50037 30.6458 2.94536 31.7907C3.39733 32.9917 4.10585 34.0797 5.0215 34.9788C5.92058 35.8945 7.00858 36.603 8.20962 37.055C9.35462 37.5 10.663 37.8042 12.5789 37.8917C14.4988 37.9793 15.1117 38 20.0002 38C24.8886 38 25.5019 37.9793 27.4215 37.8917C29.3374 37.8042 30.6458 37.5 31.7907 37.055C32.9864 36.5925 34.0723 35.8854 34.9789 34.9788C35.8854 34.0723 36.5925 32.9864 37.055 31.7907C37.5 30.6457 37.8042 29.3373 37.8917 27.4214C37.9793 25.5015 38 24.8885 38 20C38 15.1116 37.9793 14.4983 37.8917 12.5787C37.8042 10.6627 37.5 9.35432 37.055 8.20939C36.603 7.00834 35.8945 5.92033 34.9789 5.02124C34.0798 4.1054 32.9917 3.39672 31.7905 2.94466C30.6455 2.50001 29.3371 2.19578 27.4212 2.10868C25.5016 2.02072 24.8884 2 19.9999 2ZM19.9998 10.7567C18.1716 10.7567 16.3846 11.2988 14.8645 12.3145C13.3445 13.3301 12.1598 14.7737 11.4602 16.4627C10.7606 18.1517 10.5775 20.0102 10.9342 21.8032C11.2908 23.5962 12.1712 25.2432 13.4638 26.5359C14.7565 27.8286 16.4035 28.709 18.1965 29.0656C19.9895 29.4223 21.848 29.2392 23.537 28.5396C25.226 27.84 26.6696 26.6553 27.6852 25.1352C28.7009 23.6152 29.243 21.8281 29.243 20C29.243 17.5485 28.2691 15.1974 26.5357 13.464C24.8023 11.7305 22.4512 10.7567 19.9998 10.7567ZM19.9998 25.9999C18.8131 25.9999 17.6531 25.648 16.6664 24.9887C15.6797 24.3294 14.9107 23.3923 14.4566 22.296C14.0025 21.1996 13.8837 19.9932 14.1152 18.8294C14.3467 17.6655 14.9182 16.5964 15.7573 15.7573C16.5964 14.9182 17.6655 14.3468 18.8293 14.1153C19.9932 13.8838 21.1996 14.0026 22.2959 14.4567C23.3923 14.9108 24.3293 15.6799 24.9886 16.6666C25.6479 17.6532 25.9998 18.8133 25.9998 20C25.9997 21.5912 25.3676 23.1174 24.2424 24.2426C23.1172 25.3678 21.5911 25.9999 19.9998 25.9999ZM31.7683 10.3917C31.7683 11.5846 30.8012 12.5516 29.6083 12.5516C28.4154 12.5516 27.4484 11.5846 27.4484 10.3917C27.4484 9.19873 28.4154 8.23168 29.6083 8.23168C30.8012 8.23168 31.7683 9.19873 31.7683 10.3917Z" fill="url(#paint0_radial)"/>
<defs>
<radialGradient id="paint0_radial" cx="0" cy="0" r="1" gradientUnits="userSpaceOnUse" gradientTransform="translate(13.7 43.175) rotate(-70.5462) scale(52.0198 51.9349)">
<stop stop-color="#FFD87B"/>
<stop offset="0.246305" stop-color="#F3A85C"/>
<stop offset="0.37931" stop-color="#F16449"/>
<stop offset="0.388642" stop-color="#F16449"/>
<stop offset="0.699507" stop-color="#C53F8B"/>
<stop offset="0.707834" stop-color="#C53F8B"/>
<stop offset="0.985222" stop-color="#6472B5"/>
<stop offset="1" stop-color="#6472B5"/>
</radialGradient>
</defs>
</svg>
